<?xml version="1.0" encoding="utf-8"?>
<!-- Generator: Adobe Illustrator 24.0.1, SVG Export Plug-In . SVG Version: 6.00 Build 0)  -->
<svg version="1.1" id="Layer_1" xmlns="http://www.w3.org/2000/svg" xmlns:xlink="http://www.w3.org/1999/xlink" x="0px" y="0px"
	 viewBox="0 0 1029.35 236.65" style="enable-background:new 0 0 1029.35 236.65;" xml:space="preserve">
<style type="text/css">
	.st0{fill:#2C3369;}
	.st1{fill:#FFFFFF;}
</style>
<rect class="st0" width="1029.35" height="236.65"/>
<g>
	<g>
		<path class="st1" d="M121.64,117.92c0,28.29-23.11,28.93-51.08,28.93H31.29v-1.45c6.95,0,9.38-9.7,9.38-20.69V55.36
			c0-10.02-2.26-21.01-9.38-21.01v-1.29h39.28c22.47,0,43.48-0.97,43.48,27.48c0,24.08-25.7,27.96-28.93,27.96
			C95.62,88.5,121.64,90.27,121.64,117.92z M64.26,35.8v52.05h6.31c8.73,0,21.01-3.72,21.01-27.64c0-24.08-13.42-24.41-21.01-24.41
			H64.26z M97.88,117.11c0-25.7-16.49-26.51-27.32-26.51h-6.31v53.5h6.31C84.63,144.1,97.88,144.42,97.88,117.11z"/>
		<path class="st1" d="M250.47,144.1v2.75H235.6c-28.77-0.16-24.57-0.16-35.88-35.24c-5.34-16.65-20.21-16.65-20.21-16.65h-7.6
			v31.27c0,10.99,5.17,16.81,11.96,16.81v2.75h-47.04v-2.75c6.95,0,11.64-5.82,11.64-16.81V50.19c0-10.02-4.53-14.39-11.64-14.39
			v-2.75h40.09c32.17,0,54.8,3.88,54.8,30.87c0,19.72-12.28,26.99-31.52,29.26c10.51-1.13,23.44,5.98,31.36,35.08
			C234.79,140.55,246.26,143.78,250.47,144.1z M205.37,63.93c0-28.13-12.77-28.13-28.45-28.13h-5.01v56.41h5.01
			C192.6,92.21,205.37,92.05,205.37,63.93z"/>
		<path class="st1" d="M371.69,90.76c0,32.17-20.2,57.54-55.77,57.54s-55.77-25.38-55.77-57.54c0-32.01,20.21-59.16,55.77-59.16
			S371.69,58.76,371.69,90.76z M343.73,90.76c0-44.29-8.73-56.41-27.8-56.41c-19.24,0-28.13,12.12-28.13,56.41
			c0,44.45,8.89,54.8,28.13,54.8C335,145.56,343.73,135.21,343.73,90.76z"/>
		<path class="st1" d="M488.72,144.1v2.75h-46.23v-2.75c12.61,0,4.2-17.3,4.2-17.3l-4.85-11.8h-38.31c0,0-10.02,30.39,15.52,29.1
			v2.75h-39.76v-2.75c4.2-0.32,8.24,0.97,24.08-37.34l27.96-73.71h2.75c39.6,95.05,41.06,99.25,41.06,99.25
			C480.63,145.23,484.52,143.78,488.72,144.1z M440.87,112.26l-19.23-47.2l-17.62,47.2H440.87z"/>
		<path class="st1" d="M612.21,90.44c0,47.2-35.56,56.41-67.73,56.41h-42.67v-2.75c6.95,0,12.12-8.41,12.12-19.4V55.36
			c0-10.02-5.01-19.56-12.12-19.56v-2.75h42.67C576.65,33.05,612.21,43.08,612.21,90.44z M583.92,90.44
			c0-50.43-23.6-54.63-39.44-54.63h-7.11v108.3h7.11C560.32,144.1,583.92,140.71,583.92,90.44z"/>
		<path class="st1" d="M791.78,34.45v0.02c0,0.73-0.56,1.33-1.28,1.38c-7.36,0.49-17.66,5.79-31.69,38.59l-27.96,72.42h-2.75
			l-28.93-69.83l-25.86,69.83h-2.75l-40.57-97.96c-4.63-11.73-9.53-12.95-13.52-13.08c-0.75-0.02-1.35-0.63-1.35-1.38l0,0
			c0-0.76,0.62-1.38,1.38-1.38h48.8c0.76,0,1.38,0.62,1.38,1.38v0.05c0,0.7-0.52,1.31-1.22,1.37c-12.59,1.06-6.05,18.7-6.05,18.7
			l23.27,59l15.03-40.57l-9.21-24.09c-5.01-13.09-10.67-13.09-14.87-13.09v-2.75h51.56v2.75c-14.55,0-7.27,18.75-7.27,18.75
			l22.95,59.65l15.35-40.57c0,0,14.84-36.55-10.76-37.79c-0.75-0.04-1.36-0.63-1.36-1.39l0,0c0-0.77,0.62-1.39,1.39-1.39h44.9
			C791.16,33.05,791.78,33.68,791.78,34.45z"/>
		<path class="st1" d="M910.45,201.51v2.75h-46.23v-2.75c12.61,0,4.2-17.3,4.2-17.3l-29.77-69.21h-38.31c0,0-10.02,30.39,15.52,29.1
			v2.75H776.1v-2.75c4.2-0.32,8.24,0.97,24.08-37.34l27.96-73.71h2.75c39.6,95.05,65.97,156.66,65.97,156.66
			C902.37,202.64,906.25,201.19,910.45,201.51z M837.69,112.26l-19.23-47.2l-17.62,47.2H837.69z"/>
		<path class="st1" d="M994.88,33.05v2.75c-4.2,0-20.04,0.32-38.15,35.72l-10.67,22.47v33.3c0,10.99,6.95,16.81,13.74,16.81v2.75
			h-50.92v-2.75c6.79,0,13.74-5.82,13.74-16.81v-25.05c-23.76-42.03-32.57-53.83-32.57-53.83c-7.11-12.28-13.26-12.77-17.3-12.77
			v-1.29c0-0.72,0.58-1.3,1.3-1.3h48.96c0.72,0,1.3,0.58,1.3,1.3v0c0,0.69-0.54,1.28-1.23,1.3c-4.21,0.14-12.37,1.69-2.49,18.41
			l23.84,37.18l10.83-22.47c0,0,14.38-32.98-8.89-32.98v-2.75H994.88z"/>
	</g>
	<g>
		<path class="st1" d="M520.38,201.37L513,190.06h-5.78v11.32h-3.61v-28.48h11.65c5.3,0,9.08,3.33,9.08,8.58
			c0,5.12-3.56,7.94-7.52,8.28l7.82,11.61H520.38z M520.6,181.48c0-3.2-2.35-5.42-5.78-5.42h-7.61v10.89h7.61
			C518.26,186.94,520.6,184.68,520.6,181.48z"/>
		<path class="st1" d="M536.4,201.37v-28.48h18.99v3.16h-15.38v9.18h15.08v3.16h-15.08v9.82h15.38v3.16H536.4z"/>
		<path class="st1" d="M588.18,201.37l-2.56-6.32h-14.43l-2.56,6.32h-4.13l11.65-28.48h4.48l11.69,28.48H588.18z M578.41,176.57
			l-6.17,15.33h12.3L578.41,176.57z"/>
		<path class="st1" d="M602.46,201.37v-28.48h3.61v25.32h13.47v3.16H602.46z"/>
		<path class="st1" d="M644.37,201.33v-28.48h18.99v3.16h-15.38v9.18h15.08v3.16h-15.08v9.82h15.38v3.16H644.37z"/>
		<path class="st1" d="M673.73,197.32l2.13-2.69c1.91,2.09,5.04,4.06,9.13,4.06c5.17,0,6.82-2.73,6.82-4.91
			c0-7.34-17.17-3.29-17.17-13.45c0-4.7,4.26-7.9,9.95-7.9c4.43,0,7.87,1.45,10.3,3.97l-2.17,2.61c-2.17-2.35-5.21-3.42-8.39-3.42
			c-3.48,0-5.95,1.84-5.95,4.53c0,6.41,17.17,2.73,17.17,13.36c0,4.14-2.87,8.37-10.69,8.37
			C679.81,201.85,676.12,199.97,673.73,197.32z"/>
		<path class="st1" d="M714.21,201.33v-25.32h-9.17v-3.16h21.99v3.16h-9.21v25.32H714.21z"/>
		<path class="st1" d="M755.96,201.33l-2.56-6.32h-14.43l-2.56,6.32h-4.13l11.65-28.48h4.48l11.69,28.48H755.96z M746.18,176.52
			l-6.17,15.33h12.3L746.18,176.52z"/>
		<path class="st1" d="M774.49,201.33v-25.32h-9.17v-3.16h21.99v3.16h-9.21v25.32H774.49z"/>
		<path class="st1" d="M798.46,201.33v-28.48h18.99v3.16h-15.38v9.18h15.08v3.16h-15.08v9.82h15.38v3.16H798.46z"/>
	</g>
</g>
</svg>
