<?xml version="1.0" encoding="utf-8"?>
<!-- Generator: Adobe Illustrator 24.0.1, SVG Export Plug-In . SVG Version: 6.00 Build 0)  -->
<svg version="1.1" id="Layer_1" xmlns="http://www.w3.org/2000/svg" xmlns:xlink="http://www.w3.org/1999/xlink" x="0px" y="0px"
	 viewBox="0 0 1000 190" style="enable-background:new 0 0 1000 190;" xml:space="preserve">
<style type="text/css">
	.st0{fill:#2C3369;}
</style>
<g>
	<g>
		<path class="st0" d="M98.63,94.49c0,29-23.7,29.66-52.36,29.66H6v-1.49c7.13,0,9.61-9.94,9.61-21.21V30.36
			c0-10.27-2.32-21.54-9.61-21.54V7.49h40.27c23.03,0,44.58-0.99,44.58,28.17c0,24.69-26.35,28.67-29.66,28.67
			C71.95,64.33,98.63,66.15,98.63,94.49z M39.81,10.31v53.36h6.46c8.95,0,21.54-3.81,21.54-28.34c0-24.69-13.75-25.02-21.54-25.02
			H39.81z M74.27,93.66c0-26.35-16.9-27.18-28.01-27.18h-6.46v54.85h6.46C60.68,121.34,74.27,121.67,74.27,93.66z"/>
		<path class="st0" d="M230.71,121.34v2.82h-15.25c-29.5-0.17-25.19-0.17-36.79-36.13c-5.47-17.07-20.72-17.07-20.72-17.07h-7.79
			v32.06c0,11.27,5.3,17.23,12.26,17.23v2.82h-48.23v-2.82c7.13,0,11.93-5.97,11.93-17.23V25.06c0-10.27-4.64-14.75-11.93-14.75
			V7.49h41.1c32.98,0,56.18,3.98,56.18,31.65c0,20.22-12.59,27.67-32.32,29.99c10.77-1.16,24.03,6.13,32.15,35.96
			C214.63,117.69,226.4,121.01,230.71,121.34z M184.47,39.14c0-28.83-13.09-28.83-29.17-28.83h-5.14v57.83h5.14
			C171.38,68.14,184.47,67.98,184.47,39.14z"/>
		<path class="st0" d="M354.99,66.65c0,32.98-20.71,58.99-57.17,58.99s-57.17-26.02-57.17-58.99C240.64,33.84,261.36,6,297.82,6
			S354.99,33.84,354.99,66.65z M326.32,66.65c0-45.41-8.95-57.83-28.5-57.83c-19.72,0-28.84,12.43-28.84,57.83
			c0,45.57,9.11,56.18,28.84,56.18C317.37,122.83,326.32,112.22,326.32,66.65z"/>
		<path class="st0" d="M474.96,121.34v2.82h-47.39v-2.82c12.93,0,4.31-17.73,4.31-17.73l-4.97-12.1h-39.27
			c0,0-10.28,31.16,15.91,29.83v2.82h-40.76v-2.82c4.31-0.33,8.45,0.99,24.69-38.28l28.67-75.57h2.82
			c40.6,97.44,42.09,101.75,42.09,101.75C466.67,122.5,470.65,121.01,474.96,121.34z M425.91,88.69L406.19,40.3l-18.06,48.39H425.91
			z"/>
		<path class="st0" d="M601.56,66.32c0,48.39-36.46,57.83-69.43,57.83h-43.75v-2.82c7.13,0,12.43-8.62,12.43-19.89V30.36
			c0-10.27-5.14-20.05-12.43-20.05V7.49h43.75C565.1,7.49,601.56,17.77,601.56,66.32z M572.56,66.32c0-51.7-24.19-56.01-40.43-56.01
			h-7.29v111.03h7.29C548.37,121.34,572.56,117.86,572.56,66.32z"/>
		<path class="st0" d="M785.67,8.92v0.02c0,0.75-0.57,1.37-1.31,1.42c-7.55,0.5-18.1,5.93-32.49,39.56l-28.67,74.24h-2.82
			l-29.66-71.59l-26.52,71.59h-2.82l-41.6-100.42c-4.75-12.03-9.77-13.28-13.86-13.41c-0.77-0.02-1.39-0.64-1.39-1.42v0
			c0-0.78,0.63-1.42,1.42-1.42h50.03c0.78,0,1.42,0.63,1.42,1.42v0.05c0,0.72-0.54,1.34-1.25,1.4c-12.91,1.08-6.2,19.17-6.2,19.17
			l23.86,60.49l15.41-41.59l-9.45-24.69c-5.14-13.42-10.94-13.42-15.25-13.42V7.49h52.86v2.82c-14.91,0-7.46,19.22-7.46,19.22
			l23.53,61.15l15.74-41.6c0,0,15.22-37.48-11.04-38.74c-0.77-0.04-1.39-0.65-1.39-1.42v0c0-0.79,0.64-1.43,1.43-1.43h46.03
			C785.03,7.49,785.67,8.13,785.67,8.92z"/>
		<path class="st0" d="M907.32,180.19v2.82h-47.39v-2.82c12.93,0,4.31-17.73,4.31-17.73l-30.52-70.95h-39.27
			c0,0-10.28,31.16,15.91,29.83v2.82h-40.76v-2.82c4.31-0.33,8.45,0.99,24.69-38.28l28.67-75.57h2.82
			c40.6,97.44,67.64,160.61,67.64,160.61C899.04,181.35,903.01,179.86,907.32,180.19z M832.72,88.69L813,40.3l-18.06,48.39H832.72z"
			/>
		<path class="st0" d="M993.88,7.49v2.82c-4.31,0-20.55,0.33-39.11,36.62l-10.94,23.03v34.14c0,11.27,7.13,17.23,14.09,17.23v2.82
			h-52.2v-2.82c6.96,0,14.09-5.97,14.09-17.23V78.42c-24.36-43.09-33.39-55.18-33.39-55.18c-7.29-12.59-13.59-13.09-17.73-13.09
			V8.83c0-0.74,0.6-1.33,1.33-1.33h50.19c0.74,0,1.33,0.6,1.33,1.33v0c0,0.71-0.55,1.31-1.26,1.33c-4.32,0.15-12.68,1.73-2.55,18.88
			l24.44,38.12l11.1-23.03c0,0,14.75-33.81-9.11-33.81V7.49H993.88z"/>
	</g>
	<g>
		<path class="st0" d="M507.43,180.05l-7.57-11.6h-5.93v11.6h-3.7v-29.2h11.94c5.44,0,9.31,3.41,9.31,8.8
			c0,5.25-3.65,8.14-7.71,8.49l8.02,11.91H507.43z M507.65,159.65c0-3.28-2.41-5.56-5.93-5.56h-7.8v11.16h7.8
			C505.24,165.26,507.65,162.94,507.65,159.65z"/>
		<path class="st0" d="M523.85,180.05v-29.2h19.47v3.24h-15.77v9.41H543v3.24h-15.46v10.07h15.77v3.24H523.85z"/>
		<path class="st0" d="M576.93,180.05l-2.63-6.48h-14.79l-2.63,6.48h-4.23l11.94-29.2h4.59l11.98,29.2H576.93z M566.91,154.62
			l-6.33,15.72h12.61L566.91,154.62z"/>
		<path class="st0" d="M591.57,180.05v-29.2h3.7v25.96h13.81v3.24H591.57z"/>
		<path class="st0" d="M634.54,180.01v-29.2H654v3.24h-15.77v9.41h15.46v3.24h-15.46v10.07H654v3.24H634.54z"/>
		<path class="st0" d="M664.63,175.89l2.18-2.76c1.96,2.14,5.17,4.16,9.36,4.16c5.3,0,7-2.8,7-5.03c0-7.53-17.6-3.37-17.6-13.79
			c0-4.81,4.37-8.1,10.2-8.1c4.54,0,8.06,1.49,10.56,4.07l-2.23,2.67c-2.23-2.41-5.35-3.5-8.6-3.5c-3.56,0-6.1,1.88-6.1,4.64
			c0,6.57,17.6,2.8,17.6,13.7c0,4.25-2.94,8.58-10.96,8.58C670.87,180.54,667.08,178.61,664.63,175.89z"/>
		<path class="st0" d="M706.14,180.01v-25.96h-9.4v-3.24h22.54v3.24h-9.44v25.96H706.14z"/>
		<path class="st0" d="M748.93,180.01l-2.63-6.48h-14.79l-2.63,6.48h-4.23l11.94-29.2h4.59l11.98,29.2H748.93z M738.91,154.58
			l-6.33,15.72h12.61L738.91,154.58z"/>
		<path class="st0" d="M767.94,180.01v-25.96h-9.4v-3.24h22.54v3.24h-9.44v25.96H767.94z"/>
		<path class="st0" d="M792.51,180.01v-29.2h19.47v3.24h-15.77v9.41h15.46v3.24h-15.46v10.07h15.77v3.24H792.51z"/>
	</g>
</g>
</svg>
