<?xml version="1.0" encoding="UTF-8"?>
<svg width="1349px" height="292px" viewBox="0 0 1349 292" version="1.1" xmlns="http://www.w3.org/2000/svg" xmlns:xlink="http://www.w3.org/1999/xlink">
    <!-- Generator: Sketch 52.5 (67469) - http://www.bohemiancoding.com/sketch -->
    <title>priority-sign-logo</title>
    <desc>Created with Sketch.</desc>
    <g id="Page-1" stroke="none" stroke-width="1" fill="none" fill-rule="evenodd">
        <g id="priority-sign-logo">
            <path d="M734.12,54.39 C686.03,54.39 647.05,93.37 647.05,141.46 C647.05,189.55 686.03,228.53 734.12,228.53 C782.21,228.53 821.19,189.55 821.19,141.46 C821.19,93.37 782.21,54.39 734.12,54.39 Z M734.12,186.71 C709.12,186.71 691.06,166.31 691.06,141.31 C691.06,116.31 709.12,96.19 734.12,96.19 C759.12,96.19 777.54,116.39 777.54,141.38 C777.54,166.39 759.11,186.71 734.12,186.71 Z" id="Shape" fill="#252225" fill-rule="nonzero"></path>
            <path d="M0.97,0.38 C79.69,0.38 158.27,0.38 237.15,0.38 C237.21,1.38 237.31,2.33 237.31,3.27 C237.32,76.37 237.3,149.46 237.39,222.56 C237.39,225.61 236.14,225.78 233.76,225.78 C179.41,225.74 125.05,225.77 70.7,225.69 C67.87,225.69 65.92,226.54 63.94,228.53 C43.92,248.64 23.79,268.66 3.73,288.73 C2.93,289.53 2.48,290.66 1.86,291.64 C1.5,291.39 1.15,291.13 0.79,290.88 C0.79,290.03 0.79,289.19 0.79,288.34 C0.79,270.13 0.82,251.93 0.75,233.72 C0.74,231.88 1.27,230.57 2.58,229.28 C17.59,214.38 32.57,199.44 47.49,184.45 C48.77,183.16 50.08,182.88 51.76,182.88 C97.9,182.91 144.05,182.9 190.19,182.9 C191.42,182.9 192.66,182.9 194.12,182.9 C194.12,136.18 194.12,89.74 194.12,43.13 C144.06,43.13 94.21,43.13 44.01,43.13 C43.95,44.25 43.84,45.36 43.84,46.48 C43.83,78.97 43.81,111.46 43.88,143.94 C43.88,145.99 43.25,147.4 41.82,148.82 C28.83,161.7 15.9,174.65 2.94,187.57 C2.39,188.12 1.8,188.64 0.96,189.43 C0.97,126.29 0.97,63.52 0.97,0.38 Z" id="Path" fill="#D95900"></path>
            <path d="M945.23,159.62 C952.17,172.7 958.96,185.53 965.78,198.35 C969.38,205.12 973.02,211.87 976.61,218.64 C979.15,223.43 977.65,225.96 972.2,225.97 C959.97,226 947.75,225.96 935.52,225.99 C932.36,226 930.34,224.81 928.79,221.82 C919.95,204.82 910.91,187.92 901.88,171.02 C901.56,170.42 900.73,169.73 900.13,169.72 C894.43,169.62 888.74,169.66 882.63,169.66 C882.63,170.91 882.63,171.94 882.63,172.96 C882.63,188.58 882.63,204.19 882.63,219.81 C882.63,224.61 881.39,225.95 876.69,225.97 C865.98,226.01 855.27,226.01 844.57,225.97 C840.04,225.96 838.72,224.57 838.72,220 C838.72,167.71 838.71,115.42 838.72,63.12 C838.72,58.19 839.99,56.91 844.86,56.91 C869.31,56.91 893.76,56.79 918.21,56.95 C944.31,57.12 966.58,75.31 972.27,100.78 C977.11,122.45 967.57,144.97 948.13,157.73 C947.25,158.32 946.35,158.9 945.23,159.62 Z M882.78,133.11 C892.08,133.11 901.25,133.41 910.39,133.02 C917.94,132.69 923.13,128.32 926.07,121.45 C931.52,108.74 923.37,93.3 910.42,92.33 C901.54,91.66 892.59,91.87 883.68,91.71 C883.37,91.7 883.05,91.92 882.78,92.01 C882.78,105.84 882.78,119.55 882.78,133.11 Z" id="Shape" fill="#252225" fill-rule="nonzero"></path>
            <path d="M539.71,159.64 C546.36,172.16 552.87,184.44 559.39,196.71 C563.24,203.95 567.13,211.17 570.93,218.43 C571.54,219.59 572,220.9 572.15,222.19 C572.35,224 571.4,225.3 569.55,225.67 C568.42,225.89 567.25,225.97 566.1,225.98 C554.23,226 542.37,225.94 530.5,226.03 C526.88,226.06 524.77,224.7 523.03,221.33 C514.37,204.54 505.4,187.91 496.48,171.26 C496.12,170.59 495.24,169.77 494.59,169.75 C488.9,169.63 483.2,169.68 477.17,169.68 C477.17,170.97 477.17,172.01 477.17,173.05 C477.17,188.57 477.17,204.1 477.17,219.62 C477.17,224.68 475.91,225.98 470.86,225.99 C460.33,226.02 449.8,226.01 439.28,225.99 C434.51,225.98 433.21,224.7 433.21,219.97 C433.2,167.69 433.2,115.4 433.21,63.12 C433.21,58.19 434.49,56.93 439.38,56.93 C463.74,56.92 488.09,56.83 512.45,56.96 C539.03,57.1 561.48,75.59 566.93,101.59 C571.41,122.96 561.8,145.17 542.62,157.75 C541.73,158.33 540.84,158.9 539.71,159.64 Z M477.29,133.09 C486.78,133.09 495.97,133.5 505.11,132.98 C515.22,132.4 522.35,123.53 522.31,112.64 C522.28,102.45 514.25,92.87 504.69,92.29 C495.89,91.76 487.05,91.86 478.22,91.7 C477.9,91.69 477.58,91.89 477.28,91.99 C477.29,105.81 477.29,119.52 477.29,133.09 Z" id="Shape" fill="#252225" fill-rule="nonzero"></path>
            <path d="M331.52,166.77 C331.52,168.13 331.52,169.18 331.52,170.22 C331.52,186.73 331.52,203.23 331.52,219.74 C331.52,224.62 330.22,225.96 325.34,225.97 C314.72,226 304.11,226 293.49,225.97 C288.88,225.96 287.57,224.64 287.57,220.08 C287.56,167.71 287.56,115.33 287.57,62.96 C287.57,58.2 288.87,56.91 293.6,56.91 C316.62,56.9 339.65,57.36 362.65,56.79 C392.09,56.06 410.37,77.06 415.9,97.49 C423.44,125.35 408.27,155.34 381.7,164.1 C376.63,165.77 371.07,166.44 365.7,166.64 C355.37,167.03 345.01,166.75 334.66,166.76 C333.72,166.77 332.76,166.77 331.52,166.77 Z M331.64,130.99 C339.78,130.99 347.62,131.03 355.47,130.98 C363.3,130.93 369.23,126.66 372,119.31 C376.8,106.58 367.97,91.85 353.8,92.77 C347.4,93.18 340.95,92.84 334.53,92.84 C333.59,92.84 332.65,92.84 331.64,92.84 C331.64,105.71 331.64,118.17 331.64,130.99 Z" id="Shape" fill="#252225" fill-rule="nonzero"></path>
            <path d="M1270.6,119.26 C1278.74,101.98 1286.63,85.21 1294.53,68.45 C1295.78,65.79 1297.08,63.15 1298.31,60.48 C1299.48,57.93 1301.3,56.83 1304.2,56.85 C1317.76,56.96 1331.32,56.9 1344.88,56.91 C1348.29,56.91 1348.92,57.92 1347.2,60.93 C1342.21,69.68 1337.08,78.34 1332.11,87.1 C1319.49,109.35 1306.9,131.62 1294.41,153.94 C1293.47,155.63 1292.88,157.75 1292.87,159.68 C1292.76,179.49 1292.8,199.29 1292.8,219.1 C1292.8,224.7 1291.51,225.96 1285.83,225.97 C1275.66,225.97 1265.49,225.97 1255.32,225.97 C1249.52,225.97 1248.38,224.85 1248.38,219.14 C1248.38,199.16 1248.39,179.17 1248.35,159.19 C1248.35,157.99 1248.23,156.61 1247.66,155.61 C1230.92,125.96 1214.11,96.35 1197.31,66.74 C1196.08,64.57 1194.68,62.49 1193.55,60.27 C1192.37,57.96 1193.04,56.93 1195.62,56.92 C1209.54,56.89 1223.46,56.96 1237.37,56.85 C1240.43,56.83 1241.86,58.49 1242.99,60.89 C1248,71.53 1253.02,82.17 1258.03,92.8 C1261.75,100.7 1265.47,108.6 1269.2,116.49 C1269.58,117.3 1269.99,118.07 1270.6,119.26 Z" id="Path" fill="#252225"></path>
            <path d="M1096.27,95.87 C1094.85,95.87 1093.8,95.87 1092.75,95.87 C1081.42,95.87 1070.08,95.88 1058.75,95.87 C1053.27,95.87 1051.74,94.35 1051.73,88.88 C1051.71,80.22 1051.71,71.57 1051.73,62.91 C1051.74,58.53 1053.33,56.93 1057.7,56.93 C1098.04,56.92 1138.38,56.92 1178.72,56.93 C1183.21,56.93 1184.99,58.74 1185,63.32 C1185.03,71.89 1185.04,80.46 1185,89.02 C1184.98,93.88 1182.97,95.86 1178.16,95.87 C1166.65,95.89 1155.13,95.88 1143.62,95.88 C1142.57,95.88 1141.53,95.88 1140.2,95.88 C1140.2,97.23 1140.2,98.28 1140.2,99.32 C1140.2,139.13 1140.2,178.93 1140.2,218.74 C1140.2,224.32 1138.57,225.98 1133.09,225.99 C1123.18,226 1113.28,226 1103.37,225.99 C1098.04,225.98 1096.27,224.23 1096.27,218.97 C1096.27,179.16 1096.27,139.36 1096.27,99.55 C1096.27,98.48 1096.27,97.43 1096.27,95.87 Z" id="Path" fill="#252225"></path>
            <path d="M586.47,141.61 C586.47,115.56 586.47,89.5 586.47,63.45 C586.47,58.18 587.7,56.93 592.85,56.92 C603.11,56.91 613.37,56.91 623.63,56.92 C628.57,56.93 630.39,58.76 630.39,63.68 C630.39,115.61 630.39,167.54 630.39,219.47 C630.39,224.6 629.06,225.96 623.9,225.97 C613.37,226 602.84,226 592.31,225.97 C587.72,225.96 586.47,224.65 586.46,220.03 C586.47,193.89 586.47,167.75 586.47,141.61 Z" id="Path" fill="#252225"></path>
            <path d="M992.43,141.6 C992.43,115.55 992.43,89.49 992.43,63.44 C992.43,58.2 993.68,56.92 998.83,56.92 C1009.09,56.91 1019.35,56.91 1029.61,56.92 C1034.55,56.93 1036.34,58.75 1036.34,63.69 C1036.34,115.62 1036.34,167.55 1036.34,219.47 C1036.34,224.61 1035.03,225.96 1029.86,225.97 C1019.33,226 1008.8,226 998.28,225.97 C993.7,225.96 992.43,224.64 992.43,220.02 C992.43,193.89 992.43,167.74 992.43,141.6 Z" id="Path" fill="#252225"></path>
        </g>
    </g>
</svg>