<?xml version="1.0" encoding="utf-8"?>
<!-- Generator: Adobe Illustrator 19.2.1, SVG Export Plug-In . SVG Version: 6.00 Build 0)  -->
<svg version="1.1" id="layer" xmlns="http://www.w3.org/2000/svg" xmlns:xlink="http://www.w3.org/1999/xlink" x="0px" y="0px"
	 viewBox="0 0 652 652" style="enable-background:new 0 0 652 652;" xml:space="preserve">
<style type="text/css">
	.st0{fill:#55575A;}
	.st1{fill:#F58323;}
</style>
<path class="st0" d="M233.4,315.4c-12.3-1.7-20-4.2-20-11.1c0-7.2,7.4-11.8,18.8-11.8c8.8,0.1,16.6,3.6,20.4,9.1
	c0.4,0.6,1.2,0.8,1.8,0.3l10.6-7.1c0.6-0.4,0.8-1.2,0.4-1.8c-6.4-10.3-17.4-15.3-33.5-15.3c-11.6,0-22.2,3.7-28.3,9.8
	c-4.4,4.4-6.6,10-6.5,16.5c0,19.2,16.7,24.2,34.8,26.6c14.8,2,21.1,5.8,21.1,13c0,12.1-15.8,13.1-20.6,13.1c-6.7,0-19-1.8-25.9-13.6
	c-0.2-0.3-0.5-0.5-0.8-0.6c-0.4-0.1-0.7,0-1,0.2l-10.4,6.9c-0.6,0.4-0.8,1.1-0.4,1.7c7.6,14,19.8,20.4,38.5,20.4
	c18,0,37.2-7.4,37.3-28.1C269.4,323.2,251.2,317.9,233.4,315.4"/>
<path class="st0" d="M325.2,281.1c-0.2-0.5-0.7-0.8-1.2-0.8h-15.1c-0.5,0-1,0.3-1.2,0.8l-39,86.9c-0.2,0.4-0.1,0.9,0.1,1.3
	c0.3,0.4,0.7,0.6,1.1,0.6h14.8c0.5,0,1-0.3,1.2-0.8l7.8-17.5h45.3l8,17.5c0.2,0.5,0.7,0.8,1.2,0.8H363h0c0.7,0,1.3-0.6,1.3-1.3
	c0-0.3-0.1-0.6-0.3-0.8L325.2,281.1z M332.8,336.3h-32.7l16.3-36.8L332.8,336.3z"/>
<path class="st0" d="M434.1,280.4h-61.5c-0.7,0-1.3,0.6-1.3,1.3v86.8c0,0.7,0.6,1.3,1.3,1.3h13.9c0.7,0,1.3-0.6,1.3-1.3V336h43.9
	c0.7,0,1.3-0.6,1.3-1.3v-12.9c0-0.7-0.6-1.3-1.3-1.3h-43.9v-23.8h46.2c0.7,0,1.3-0.6,1.3-1.3v-13.5
	C435.4,281,434.8,280.4,434.1,280.4"/>
<path class="st0" d="M512,346.8c-0.5-0.5-1.4-0.5-1.9,0c-5.6,5.6-14.1,9-22.2,9c-22.5,0-30.6-16.3-30.7-30.3
	c-0.1-8.8,3.1-17,8.6-22.6c5.4-5.5,13.1-8.3,22.1-8.3c8.3,0,15.9,3,21.5,8.6c0.5,0.5,1.3,0.5,1.9,0l9.3-9c0.3-0.2,0.4-0.6,0.4-0.9
	c0-0.4-0.1-0.7-0.4-0.9c-8.7-8.8-20.4-13.6-32.7-13.6c-13.8,0-25.5,4.5-34,13c-8.4,8.5-13.2,20.8-13.2,33.9
	c0.1,21.2,12.5,45.9,47.1,45.9c13.1,0,24.8-4.6,33.6-13.3c0.3-0.2,0.4-0.6,0.4-0.9c0-0.4-0.1-0.7-0.4-0.9L512,346.8z"/>
<path class="st0" d="M566.7,278.7c-26.7,0-46,19.7-46,46.9c0,23,14.1,46.1,45.8,46.1c31.6,0,45.8-23.2,45.8-46.3
	C612.2,302.3,598.1,278.8,566.7,278.7 M595.8,325.7c0,14.8-7.7,30.6-29.3,30.6c-21.3,0-29.1-16.5-29.3-30.6
	c0-19.5,11.3-31.7,29.6-31.7C586.8,294.4,595.8,310.2,595.8,325.7"/>
<path class="st0" d="M613.9,292.2c-4.3,0-7.3-3.2-7.3-7.4c0-4.4,3.4-7.4,7.3-7.4c3.9,0,7.2,2.9,7.2,7.4
	C621.1,289.3,617.8,292.2,613.9,292.2 M613.9,278.7c-3.2,0-5.7,2.5-5.7,6.1c0,3.4,2.2,6.1,5.7,6.1c3.2,0,5.6-2.5,5.6-6.1
	C619.5,281.2,617.1,278.7,613.9,278.7 M612.4,289.1h-1.3v-8.2h3.1c2,0,3,0.7,3,2.3c0,1.5-0.9,2.1-2.1,2.2l2.3,3.6h-1.5l-2.1-3.5
	h-1.3V289.1z M613.9,284.4c1,0,1.9-0.1,1.9-1.3c0-1-1-1.1-1.8-1.1h-1.6v2.4H613.9z"/>
<path class="st1" d="M159.3,266.6c-1.2-1.4-2.7-3.1-4.1-4.4c-16.8-15.9-39.2-18-56.6-12.4c-10.6,3.5-16.2,8.1-22.8,14.8l-3.9,3.9
	c-1,1-0.4,2.1,0.9,1.8c2.3-0.6,4.7-0.8,7.1-0.8h78.4C159.8,269.4,160.3,267.8,159.3,266.6"/>
<path class="st1" d="M169,286.2c5.2,19.3,1.5,39.2-13,53.7l-12.3,12.3c-1,1-2.3,0.5-2-1c0.5-2.2,0.8-4.4,0.8-6.7
	c0-8-3.4-15.6-9.2-21.2c-5.7-5.6-13.6-8.4-21.7-8.4l-31.6,0c-4.3,0-8.3-1.6-11.4-4.6c-3-3-4.6-6.9-4.6-11c0-4.2,1.7-8.1,4.7-11
	c3-3,7.1-4.6,11.4-4.6h86C167.7,283.5,168.4,284.2,169,286.2"/>
<path class="st1" d="M33.1,377.2c1.2,1.4,2.7,3.1,4.1,4.4c16.8,15.9,39.2,18,56.6,12.4c10.6-3.5,16.2-8.1,22.8-14.8l3.9-3.9
	c1-1,0.4-2.1-0.9-1.8c-2.3,0.6-4.7,0.8-7.1,0.8H34.1C32.5,374.5,32,376.1,33.1,377.2"/>
<path class="st1" d="M23.4,357.7c-5.2-19.3-1.5-39.2,13-53.7l12.3-12.3c1-1,2.3-0.5,2,1c-0.5,2.2-0.8,4.4-0.8,6.7
	c0,8,3.4,15.6,9.2,21.2c5.7,5.6,13.6,8.4,21.7,8.4h31.6c4.3,0,8.3,1.6,11.4,4.6c3,3,4.6,6.9,4.6,11c0,4.2-1.7,8.1-4.7,11
	c-3,3-7.1,4.6-11.4,4.6h-86C24.6,360.3,23.9,359.7,23.4,357.7"/>
</svg>
